<svg width="400" height="400" viewBox="0 0 400 400" xmlns="http://www.w3.org/2000/svg">
  <defs>
    <linearGradient id="bgGradient" x1="0%" y1="0%" x2="100%" y2="100%">
      <stop offset="0%" style="stop-color:#0066ff;stop-opacity:1" />
      <stop offset="100%" style="stop-color:#ff6600;stop-opacity:1" />
    </linearGradient>
    <linearGradient id="suitGradient" x1="0%" y1="0%" x2="100%" y2="100%">
      <stop offset="0%" style="stop-color:#1a365d;stop-opacity:1" />
      <stop offset="100%" style="stop-color:#2d3748;stop-opacity:1" />
    </linearGradient>
  </defs>
  
  <!-- Fondo -->
  <rect width="400" height="400" fill="url(#bgGradient)" rx="20"/>
  
  <!-- Oficina de fondo -->
  <rect x="50" y="200" width="300" height="150" fill="#8b4513" opacity="0.3"/>
  <rect x="60" y="180" width="80" height="120" fill="#654321" opacity="0.4"/>
  <rect x="260" y="180" width="80" height="120" fill="#654321" opacity="0.4"/>
  
  <!-- Abogado -->
  <!-- Cabeza -->
  <circle cx="200" cy="120" r="35" fill="#fdbcb4"/>
  
  <!-- Cuerpo (traje) -->
  <rect x="170" y="155" width="60" height="120" fill="url(#suitGradient)" rx="5"/>
  
  <!-- Camisa -->
  <rect x="180" y="155" width="40" height="80" fill="white" opacity="0.9"/>
  
  <!-- Corbata -->
  <rect x="195" y="160" width="10" height="60" fill="#0066ff"/>
  
  <!-- Brazos -->
  <rect x="150" y="160" width="20" height="80" fill="#fdbcb4"/>
  <rect x="230" y="160" width="20" height="80" fill="#fdbcb4"/>
  
  <!-- Piernas -->
  <rect x="175" y="275" width="15" height="80" fill="url(#suitGradient)"/>
  <rect x="210" y="275" width="15" height="80" fill="url(#suitGradient)"/>
  
  <!-- Documentos -->
  <rect x="100" y="200" width="40" height="50" fill="white" rx="3"/>
  <rect x="105" y="205" width="30" height="3" fill="#666"/>
  <rect x="105" y="215" width="25" height="3" fill="#666"/>
  <rect x="105" y="225" width="30" height="3" fill="#666"/>
  
  <rect x="260" y="200" width="40" height="50" fill="white" rx="3"/>
  <rect x="265" y="205" width="30" height="3" fill="#666"/>
  <rect x="265" y="215" width="25" height="3" fill="#666"/>
  <rect x="265" y="225" width="30" height="3" fill="#666"/>
  
  <!-- Balanza de justicia -->
  <circle cx="200" cy="320" r="15" fill="#ff6600"/>
  <line x1="200" y1="305" x2="200" y2="335" stroke="#333" stroke-width="3"/>
  <line x1="180" y1="305" x2="220" y2="305" stroke="#333" stroke-width="3"/>
  <circle cx="185" cy="300" r="8" fill="#0066ff"/>
  <circle cx="215" cy="300" r="8" fill="#0066ff"/>
  
  <!-- Texto -->
  <text x="200" y="375" text-anchor="middle" fill="white" font-family="Arial, sans-serif" font-size="14" font-weight="bold">ABOGADOS ESPECIALISTAS EN</text>
  <text x="200" y="390" text-anchor="middle" fill="white" font-family="Arial, sans-serif" font-size="11">Derecho Civil • Inmobiliario • Notarial • Urbanístico</text>
</svg>
